<?xml version="1.0" encoding="UTF-8"?>
<svg id="Layer_2" data-name="Layer 2" xmlns="http://www.w3.org/2000/svg" viewBox="0 0 621.18 620.22">
  <defs>
    <style>
      .cls-1 {
        fill: #001d60;
      }

      .cls-2 {
        fill: #fff;
      }

      .cls-3 {
        fill: #ff5203;
      }
    </style>
  </defs>
  <g id="Logo">
    <g>
      <g>
        <circle class="cls-3" cx="310.69" cy="309.93" r="224.94"/>
        <path class="cls-2" d="M224.63,141.43s-7.37-8.35,0-12.77c7.37-4.42,10.17-2.46,15.58-4.91,5.4-2.46,5.05-7.02,14.39-6.53l-11.23,12.22-5.38.43-13.34,11.57Z"/>
        <polygon class="cls-2" points="252.13 165.01 246.73 155.68 246.73 146.35 243.78 136.03 254.59 124.39 264.9 123.26 273.25 110.98 296.83 110.98 302.23 118.3 279.64 151.26 266.38 150.28 252.13 165.01"/>
        <polygon class="cls-2" points="387.86 416.33 387.86 398.98 404.89 378.68 404.89 397.5 387.86 416.33"/>
        <polygon class="cls-2" points="491.99 318.75 491.99 335.45 506.73 358.37 508.37 341.35 491.99 318.75"/>
        <path class="cls-2" d="M426.99,138h-15.23l-3.93,7.86h-17.68l-6.88,7.86h-23.09l-11.79-15.72h-14.64l-11.88,19.65v10.81l8.84,12.28-7.86,10.68h-11.3l-16.21,19.29v16.7l4.91,4.91,10.81-.49,18.17-23.09,8.84,13.26h17.19l4.91-7.86h7.86l6.39,10.81v13.26l-5.89,9.33h-24.56l-13.75-17.19-11.79,13.26h-25.05l-20.38,29.96v33.89l16.95,23.58h23.09l20.72,26.52v38.8l5.8,7.37v27.02l12.28,17.19h10.31l18.17-23.58v-27.01l10.31-11.79v-32.42l23.09-28v-19.16l-7.86-11.3,11.79-17.19v-12.28l6.88-5.4,12.28,2.46,29.96,38.8,15.23-21.12,7.37,7.86.98,16.7,8.84,11.79h14.74l9.5-10.71c-1.1-55.21-23.11-106.95-62.27-146.12-2.84-2.84-5.76-5.59-8.73-8.25l-12.17,2.49-13.26-15.72Z"/>
        <path class="cls-2" d="M236.91,407.66v-17.19l9.82-13.26v-16.21l-12.77-14.74-12.28-.49-14.74-21.12-10.31-.98-10.31-18.17h-19.16l-11.79,18.66-6.39-7.86-.98-19.16-6.88-9.33v-8.84l-6.39,8.84-6.88-6.88-.33-14.24,11.46-17.03,17.68.33s1.87,7.6,2.13,9.33h5.89l-.98-12.28,23.58-27.02,17.68-1.47,22.59-27.15-8.84-15.1h-10.32l-12.77,15.1s-7.37,4.78-12.77,0c-5.4-4.78,5.4-15.1,5.4-15.1l14.74-13.75h7.86l11.3-13.26-2.46-5.89-6.88,5.89-11.79,1.96-30.94,13.75-1.96-7.37-12.47,6.53c-26.29,27.92-44.22,61.74-52.51,98.41l50.74,73.85,5.89,35.37,20.63,23.58,23.58,70.73,21.61,23.09h6.88l-11.79-13.75s-.49-8.35-3.93-10.81c0,0-1.47-4.42,1.97-7.86,3.44-3.44-1.47-8.35-.49-15.72.98-7.37,18.66-33.4,18.66-33.4Z"/>
      </g>
      <g>
        <g>
          <path class="cls-1" d="M119.69,65.11l6.97,7.9-16.5,14.55,7.53,8.54,12.34-10.89,6.77,7.67-12.34,10.89,14.45,16.38-9.86,8.7-35.73-40.49,26.36-23.26Z"/>
          <path class="cls-1" d="M166.87,94.15c-4.84.12-9.41-1-13.71-3.38s-7.79-5.84-10.47-10.38c-2.69-4.54-4.03-9.26-4.03-14.15,0-4.88,1.22-9.42,3.66-13.6,2.44-4.18,5.85-7.57,10.22-10.15s8.98-3.94,13.82-4.06,9.38,1.01,13.62,3.38c4.24,2.38,7.7,5.85,10.39,10.39,2.69,4.55,4.05,9.27,4.08,14.16.03,4.89-1.16,9.43-3.58,13.6-2.42,4.17-5.81,7.55-10.18,10.13s-8.98,3.94-13.82,4.06ZM181.29,70.79c.77-3.79-.05-7.71-2.45-11.78-2.43-4.11-5.48-6.72-9.16-7.86-3.68-1.13-7.37-.6-11.08,1.59-3.75,2.22-6.02,5.2-6.82,8.95s.04,7.69,2.49,11.84c2.43,4.11,5.48,6.72,9.16,7.86s7.39.59,11.15-1.63c3.71-2.19,5.95-5.18,6.71-8.97Z"/>
          <path class="cls-1" d="M216.53,70.29c-3.38-.19-6.36-1.16-8.95-2.92-2.59-1.76-4.52-4.3-5.78-7.61l13.22-4.59c.85,1.82,2,3.04,3.46,3.64,1.46.61,3.08.6,4.88-.02,1.84-.64,3.15-1.57,3.92-2.79s.9-2.58.38-4.08c-.44-1.26-1.22-2.15-2.36-2.68-1.13-.53-2.41-.84-3.83-.95-1.42-.1-3.39-.1-5.9.01-3.65.13-6.69.04-9.13-.25-2.44-.29-4.75-1.17-6.94-2.64-2.19-1.46-3.84-3.8-4.95-6.99-1.65-4.75-1.22-9.06,1.29-12.95,2.5-3.88,6.52-6.78,12.04-8.7,5.62-1.95,10.62-2.18,14.99-.69,4.37,1.49,7.51,4.6,9.42,9.31l-13.44,4.67c-.67-1.61-1.72-2.7-3.17-3.26-1.44-.56-3.04-.54-4.78.07-1.5.52-2.57,1.34-3.22,2.46-.64,1.12-.7,2.43-.18,3.93.57,1.65,1.79,2.66,3.66,3.04,1.87.38,4.64.54,8.3.46,3.68-.03,6.73.11,9.14.41,2.41.3,4.71,1.16,6.88,2.58,2.17,1.42,3.79,3.65,4.85,6.7,1.01,2.91,1.19,5.8.54,8.69-.65,2.89-2.14,5.52-4.46,7.9-2.32,2.38-5.4,4.24-9.22,5.57-3.73,1.29-7.28,1.85-10.66,1.67Z"/>
          <path class="cls-1" d="M259.55,57.65c-3.29-.77-6.06-2.24-8.31-4.43-2.25-2.18-3.71-5.01-4.37-8.49l13.82-2.23c.52,1.94,1.45,3.34,2.78,4.19,1.33.85,2.93,1.12,4.81.82,1.92-.31,3.37-1,4.34-2.07s1.33-2.38,1.08-3.95c-.21-1.32-.83-2.33-1.86-3.05-1.03-.72-2.23-1.25-3.61-1.6s-3.32-.68-5.81-1.01c-3.61-.51-6.6-1.12-8.94-1.83-2.35-.71-4.48-1.97-6.38-3.8-1.9-1.82-3.13-4.4-3.67-7.74-.8-4.96.37-9.14,3.51-12.53,3.14-3.39,7.6-5.55,13.37-6.48,5.87-.95,10.83-.31,14.88,1.92,4.05,2.23,6.6,5.83,7.67,10.8l-14.05,2.27c-.38-1.7-1.23-2.96-2.56-3.76-1.32-.8-2.9-1.05-4.72-.76-1.57.25-2.77.88-3.6,1.87-.83.99-1.11,2.27-.86,3.84.28,1.72,1.3,2.93,3.08,3.63,1.77.7,4.47,1.33,8.1,1.89,3.63.61,6.61,1.27,8.93,1.98,2.32.72,4.43,1.96,6.33,3.73,1.9,1.77,3.1,4.25,3.62,7.44.49,3.04.16,5.92-.98,8.65-1.14,2.73-3.07,5.06-5.76,7.01-2.7,1.94-6.05,3.24-10.05,3.88-3.9.63-7.49.56-10.79-.21Z"/>
          <path class="cls-1" d="M307.21.08l1.74,53.97-13.15.42-1.74-53.97,13.15-.42Z"/>
          <path class="cls-1" d="M330.58,44.71l17.18,1.31-.77,10.12-30.3-2.3,4.09-53.84,13.12,1-3.32,43.72Z"/>
          <path class="cls-1" d="M414.59,17.37l-2.9,10.13-21.15-6.06-3.14,10.95,15.82,4.54-2.82,9.84-15.83-4.54-6.02,21-12.64-3.62,14.88-51.91,33.79,9.69Z"/>
          <path class="cls-1" d="M439.26,27.78l-14.26,28.99c-1.42,2.9-1.81,5.48-1.15,7.75.66,2.27,2.37,4.08,5.13,5.44,2.76,1.36,5.26,1.62,7.5.78,2.24-.84,4.08-2.71,5.5-5.61l14.26-28.99,11.8,5.81-14.23,28.92c-2.13,4.32-4.85,7.53-8.16,9.61-3.31,2.09-6.9,3.12-10.75,3.11-3.85,0-7.69-.95-11.51-2.83-3.82-1.88-6.87-4.31-9.15-7.29s-3.55-6.4-3.82-10.28c-.27-3.87.67-7.97,2.79-12.3l14.23-28.92,11.8,5.81Z"/>
          <path class="cls-1" d="M485.91,67.14l-6.48,8.79,14.18,10.45-6.02,8.18-14.18-10.44-7.03,9.54,16.04,11.81-6.25,8.49-26.63-19.61,32.02-43.48,26.63,19.62-6.25,8.48-16.04-11.81Z"/>
          <path class="cls-1" d="M497.15,120.07l12.38,11.98-7.06,7.3-21.83-21.13,37.56-38.8,9.45,9.15-30.5,31.5Z"/>
          <path class="cls-1" d="M552.77,222.55l-5.63-11.89,20.69-34.14-30.1,14.26-5.63-11.89,48.8-23.11,5.63,11.89-20.82,34.21,30.24-14.32,5.63,11.89-48.8,23.12Z"/>
          <path class="cls-1" d="M560.49,239.22c1.36-4.65,3.83-8.65,7.41-12.02s7.94-5.63,13.09-6.8c5.15-1.17,10.05-1.01,14.7.48,4.65,1.49,8.6,4.04,11.83,7.64,3.24,3.6,5.42,7.88,6.54,12.83,1.13,4.95,1,9.75-.36,14.4-1.36,4.65-3.83,8.63-7.38,11.93-3.56,3.31-7.92,5.55-13.07,6.72-5.15,1.17-10.06,1.02-14.73-.44-4.67-1.46-8.62-3.98-11.86-7.56-3.23-3.58-5.41-7.84-6.54-12.79-1.12-4.95-1.01-9.75.36-14.4ZM578.33,260.09c3.37,1.89,7.36,2.31,11.96,1.27,4.65-1.06,8.08-3.16,10.28-6.32,2.2-3.16,2.83-6.84,1.87-11.04-.97-4.25-3.11-7.33-6.44-9.23-3.33-1.9-7.34-2.32-12.04-1.25-4.65,1.06-8.08,3.16-10.28,6.32-2.2,3.16-2.82,6.86-1.85,11.11.95,4.2,3.12,7.24,6.49,9.13Z"/>
          <path class="cls-1" d="M567.18,333l-.08-13.16,33.17-22.21-33.31.21-.08-13.15,54-.34.08,13.16-33.32,22.21,33.46-.21.08,13.15-54,.34Z"/>
          <path class="cls-1" d="M591.93,378.12l-10.74-1.97,6.11-33.29,10.74,1.97-6.11,33.29Z"/>
          <path class="cls-1" d="M570.82,427.26c-1.94-2.24-3.14-5.03-3.6-8.37-.47-3.34.06-7.08,1.58-11.22l2.81-7.65-18.2-6.68,4.54-12.35,50.69,18.62-7.35,20c-1.49,4.04-3.44,7.2-5.86,9.48-2.42,2.28-5.12,3.67-8.08,4.16-2.97.49-6.04.16-9.22-1.01-2.94-1.08-5.37-2.74-7.31-4.98ZM578.69,416.22c.68,1.56,2.03,2.71,4.06,3.46s3.8.74,5.33,0c1.53-.75,2.73-2.3,3.6-4.66l2.47-6.72-12.71-4.67-2.47,6.72c-.87,2.36-.96,4.32-.27,5.88Z"/>
          <path class="cls-1" d="M527.82,447.04l23.26.71,1.61-2.71-17.55-10.38,6.7-11.32,46.48,27.48-11.24,19c-2.17,3.66-4.65,6.41-7.46,8.23-2.81,1.82-5.7,2.72-8.69,2.68-2.99-.04-5.85-.86-8.58-2.48-3.09-1.83-5.33-4.33-6.73-7.51-1.4-3.18-1.6-6.77-.6-10.77l-24.75-.16,7.56-12.78ZM560.7,449.77l-4.15,7.02c-1.23,2.08-1.64,3.93-1.24,5.57.4,1.64,1.53,3,3.38,4.1,1.76,1.04,3.46,1.35,5.09.91,1.63-.44,3.06-1.69,4.28-3.77l4.15-7.02-11.52-6.81Z"/>
          <path class="cls-1" d="M512.09,474.49c4.59-1.54,9.29-1.81,14.09-.81,4.8,1,9.16,3.28,13.07,6.84,3.91,3.55,6.58,7.66,8.02,12.33,1.44,4.67,1.61,9.36.51,14.08-1.1,4.71-3.36,8.95-6.77,12.71-3.42,3.76-7.42,6.41-12.01,7.95-4.59,1.54-9.26,1.8-14.01.78-4.75-1.03-9.08-3.32-12.99-6.87-3.91-3.55-6.6-7.66-8.08-12.33-1.48-4.67-1.67-9.35-.59-14.05,1.08-4.7,3.33-8.93,6.75-12.68,3.41-3.76,7.42-6.41,12.01-7.95ZM505.19,501.07c.38,3.85,2.32,7.36,5.81,10.53,3.53,3.21,7.22,4.81,11.07,4.81,3.85,0,7.22-1.6,10.12-4.79,2.93-3.23,4.22-6.75,3.88-10.56-.35-3.82-2.3-7.34-5.87-10.59-3.53-3.21-7.22-4.81-11.07-4.81-3.85,0-7.24,1.62-10.17,4.84-2.9,3.19-4.16,6.7-3.77,10.55Z"/>
          <path class="cls-1" d="M473.38,521.59l-13.65,10.51-6.2-8.04,24.08-18.54,32.95,42.79-10.42,8.03-26.75-34.74Z"/>
          <path class="cls-1" d="M466.38,579.1l-28.09-46.12,11.23-6.84,28.09,46.12-11.23,6.84Z"/>
          <path class="cls-1" d="M422.23,600.77l-4.37-9.59,20.02-9.12-4.72-10.36-14.98,6.82-4.24-9.31,14.98-6.83-9.06-19.88,11.97-5.45,22.39,49.14-31.99,14.57Z"/>
          <path class="cls-1" d="M394.54,598.39l-2.94-10.52-16.96,4.75-2.74-9.78,16.96-4.75-3.19-11.41-19.19,5.37-2.84-10.15,31.85-8.92,14.56,52-31.85,8.92-2.84-10.15,19.18-5.37Z"/>
          <path class="cls-1" d="M330.39,566.17l13.3,19.1,3.14-.33-2.13-20.27,13.08-1.37,5.63,53.71-21.96,2.3c-4.23.45-7.92.08-11.06-1.08-3.14-1.17-5.58-2.96-7.33-5.38-1.75-2.42-2.79-5.21-3.12-8.37-.37-3.57.3-6.87,2.02-9.88,1.72-3.02,4.48-5.32,8.29-6.9l-14.62-19.97,14.76-1.55ZM347.79,594.2l-8.11.85c-2.4.25-4.13,1.03-5.21,2.33-1.07,1.3-1.5,3.02-1.28,5.16.21,2.04.98,3.58,2.3,4.63,1.32,1.05,3.18,1.45,5.58,1.19l8.11-.85-1.4-13.31Z"/>
          <path class="cls-1" d="M276.35,574.34l20.07,1.83,4.09-9.21,13.71,1.25-24.37,52-15.17-1.38-14.54-55.56,13.87,1.27,2.35,9.79ZM278.8,584.76l4.87,20.3,8.39-19.08-13.25-1.21Z"/>
          <path class="cls-1" d="M204.95,603.07l2.9-10.13,13.75,3.94,11.96-41.78,12.65,3.62-11.96,41.78,13.75,3.94-2.9,10.13-40.16-11.5Z"/>
          <path class="cls-1" d="M182.42,593.23l21.25-49.64,12.09,5.18-21.25,49.64-12.09-5.18Z"/>
          <path class="cls-1" d="M185.23,537.96c2.34,4.24,3.44,8.82,3.31,13.72-.13,4.91-1.6,9.6-4.4,14.08s-6.37,7.85-10.7,10.1c-4.34,2.25-8.92,3.25-13.76,3.01-4.84-.24-9.41-1.71-13.72-4.4-4.31-2.69-7.63-6.16-9.97-10.4-2.34-4.24-3.43-8.79-3.26-13.65s1.64-9.53,4.44-14.01c2.8-4.48,6.36-7.86,10.69-10.14,4.33-2.29,8.9-3.31,13.72-3.09,4.82.23,9.38,1.68,13.68,4.38,4.31,2.69,7.63,6.16,9.97,10.4ZM157.85,535.92c-3.72,1.06-6.83,3.6-9.32,7.6-2.53,4.04-3.45,7.96-2.76,11.75.69,3.79,2.86,6.82,6.51,9.1,3.7,2.31,7.39,2.95,11.08,1.93,3.69-1.02,6.81-3.58,9.37-7.66,2.53-4.04,3.45-7.96,2.76-11.75-.69-3.79-2.88-6.83-6.58-9.14-3.65-2.28-7.34-2.89-11.06-1.83Z"/>
          <path class="cls-1" d="M113.96,476.82l9.45,9.15-7.36,39.23,23.17-23.93,9.45,9.15-37.56,38.8-9.45-9.15,7.47-39.34-23.27,24.04-9.45-9.15,37.56-38.8Z"/>
          <path class="cls-1" d="M19.61,420.31l9.59-4.37,5.94,13.02,39.54-18.03,5.46,11.97-39.54,18.03,5.94,13.02-9.59,4.37-17.33-38Z"/>
          <path class="cls-1" d="M60.6,367.41l-16.96,15.94.79,3.05,19.74-5.06,3.27,12.74-52.31,13.42-5.49-21.39c-1.06-4.12-1.24-7.82-.54-11.1.7-3.28,2.11-5.95,4.25-8.04,2.14-2.08,4.75-3.52,7.83-4.31,3.48-.89,6.83-.71,10.07.55s5.91,3.66,8.04,7.19l17.62-17.39,3.69,14.38ZM35.42,388.72l-2.03-7.9c-.6-2.33-1.62-3.94-3.06-4.81-1.44-.87-3.21-1.04-5.29-.51-1.99.51-3.4,1.5-4.24,2.96-.84,1.46-.97,3.36-.37,5.69l2.03,7.9,12.96-3.33Z"/>
          <path class="cls-1" d="M12.15,338.26l10.89-.9-1.46-17.55,10.12-.84,1.46,17.55,11.81-.98-1.65-19.86,10.5-.87,2.73,32.96-53.82,4.46-2.73-32.96,10.5-.87,1.65,19.86Z"/>
          <path class="cls-1" d="M47.04,274.56l-1.96,20.06,9.18,4.14-1.34,13.71L1.08,287.78l1.48-15.16,55.64-14.21-1.35,13.86-9.81,2.29ZM36.6,276.94l-20.33,4.74,19.04,8.5,1.29-13.24Z"/>
          <path class="cls-1" d="M18.74,202.96l10.11,2.96-4.02,13.73,41.71,12.21-3.7,12.62-41.71-12.22-4.02,13.73-10.11-2.96,11.74-40.09Z"/>
          <path class="cls-1" d="M44.47,148.86l23.95,32.91,15.96,8-5.89,11.76-15.96-7.99-40.7.52,6.68-13.34,24.91.78-15.57-19.42,6.62-13.2Z"/>
        </g>
        <g>
          <circle class="cls-3" cx="87.89" cy="137.85" r="9.14"/>
          <circle class="cls-3" cx="76.2" cy="466.61" r="9.14"/>
          <circle class="cls-3" cx="537.76" cy="135.94" r="9.14"/>
        </g>
      </g>
    </g>
  </g>
</svg>