<?xml version="1.0" encoding="UTF-8"?>
<svg id="Layer_2" data-name="Layer 2" xmlns="http://www.w3.org/2000/svg" viewBox="0 0 900 296.32">
  <defs>
    <style>
      .cls-1 {
        fill: #fff;
      }
    </style>
  </defs>
  <g id="Logo">
    <g>
      <g>
        <circle cx="148.16" cy="148.16" r="148.16"/>
        <path class="cls-1" d="M91.47,37.17s-4.85-5.5,0-8.41c4.85-2.91,6.7-1.62,10.26-3.24,3.56-1.62,3.33-4.62,9.48-4.3l-7.4,8.05-3.55.28-8.79,7.62Z"/>
        <polygon class="cls-1" points="109.59 52.7 106.03 46.56 106.03 40.41 104.09 33.62 111.21 25.94 118 25.2 123.5 17.12 139.03 17.12 142.59 21.94 127.71 43.64 118.97 43 109.59 52.7"/>
        <polygon class="cls-1" points="198.99 218.24 198.99 206.81 210.21 193.44 210.21 205.84 198.99 218.24"/>
        <polygon class="cls-1" points="267.58 153.97 267.58 164.97 277.29 180.07 278.37 168.85 267.58 153.97"/>
        <path class="cls-1" d="M224.77,34.91h-10.03l-2.59,5.18h-11.65l-4.53,5.18h-15.21l-7.76-10.35h-9.64l-7.83,12.94v7.12l5.82,8.09-5.18,7.03h-7.44l-10.68,12.7v11l3.24,3.24,7.12-.32,11.97-15.21,5.82,8.74h11.32l3.24-5.18h5.18l4.21,7.12v8.74l-3.88,6.15h-16.18l-9.06-11.32-7.76,8.74h-16.5l-13.43,19.74v22.32l11.16,15.53h15.21l13.65,17.47v25.56l3.82,4.85v17.79l8.09,11.32h6.79l11.97-15.53v-17.79l6.79-7.76v-21.35l15.21-18.44v-12.62l-5.18-7.44,7.76-11.32v-8.09l4.53-3.56,8.09,1.62,19.74,25.56,10.03-13.91,4.85,5.18.65,11,5.82,7.76h9.71l6.25-7.05c-.72-36.37-15.22-70.45-41.02-96.24-1.87-1.87-3.79-3.68-5.75-5.43l-8.02,1.64-8.74-10.35Z"/>
        <path class="cls-1" d="M99.56,212.53v-11.32l6.47-8.74v-10.68l-8.41-9.71-8.09-.32-9.71-13.91-6.79-.65-6.79-11.97h-12.62l-7.76,12.29-4.21-5.18-.65-12.62-4.53-6.15v-5.82l-4.21,5.82-4.53-4.53-.22-9.38,7.55-11.22,11.65.22s1.23,5,1.4,6.15h3.88l-.65-8.09,15.53-17.79,11.65-.97,14.88-17.88-5.82-9.94h-6.79l-8.41,9.94s-4.85,3.15-8.41,0c-3.56-3.15,3.56-9.94,3.56-9.94l9.71-9.06h5.18l7.44-8.74-1.62-3.88-4.53,3.88-7.76,1.29-20.38,9.06-1.29-4.85-8.21,4.3c-17.32,18.39-29.13,40.66-34.59,64.82l33.42,48.65,3.88,23.29,13.59,15.53,15.53,46.59,14.24,15.21h4.53l-7.76-9.06s-.32-5.5-2.59-7.12c0,0-.97-2.91,1.29-5.18,2.26-2.26-.97-5.5-.32-10.35.65-4.85,12.29-22,12.29-22Z"/>
        <path d="M148.16,8c37.44,0,72.64,14.58,99.11,41.05,26.47,26.47,41.05,61.67,41.05,99.11s-14.58,72.64-41.05,99.11c-26.47,26.47-61.67,41.05-99.11,41.05s-72.64-14.58-99.11-41.05c-26.47-26.47-41.05-61.67-41.05-99.11s14.58-72.64,41.05-99.11c26.47-26.47,61.67-41.05,99.11-41.05M148.16,0C66.33,0,0,66.33,0,148.16s66.33,148.16,148.16,148.16,148.16-66.33,148.16-148.16S229.99,0,148.16,0h0Z"/>
      </g>
      <g>
        <g>
          <path d="M413.56,173.23v20.77h-28.2v85.65h-25.92v-85.65h-28.2v-20.77h82.31Z"/>
          <path d="M480.86,279.64l-22.13-40.17h-6.22v40.17h-25.92v-106.42h43.51c8.39,0,15.54,1.47,21.45,4.4,5.91,2.93,10.33,6.95,13.26,12.05,2.93,5.1,4.4,10.79,4.4,17.05,0,7.07-2,13.39-5.99,18.95-3.99,5.56-9.88,9.5-17.66,11.82l24.56,42.14h-29.26ZM452.51,221.13h16.07c4.75,0,8.31-1.16,10.69-3.49,2.37-2.32,3.56-5.61,3.56-9.85s-1.19-7.22-3.56-9.55c-2.38-2.32-5.94-3.49-10.69-3.49h-16.07v26.38Z"/>
          <path d="M551.35,194v21.53h34.71v20.01h-34.71v23.34h39.26v20.77h-65.18v-106.42h65.18v20.77h-39.26Z"/>
          <path d="M677.68,260.85h-39.72l-6.37,18.8h-27.13l38.5-106.42h30.01l38.5,106.42h-27.44l-6.37-18.8ZM671.01,240.84l-13.19-38.96-13.04,38.96h26.23Z"/>
          <path d="M790.41,173.23v20.77h-28.2v85.65h-25.92v-85.65h-28.2v-20.77h82.31Z"/>
          <path d="M900,173.23l-36.84,71.25v35.17h-25.92v-35.17l-36.84-71.25h29.41l20.62,44.57,20.46-44.57h29.1Z"/>
        </g>
        <g>
          <path d="M535.46,117.92h-5.92l-1.87,10.57h5.92c1.89,0,3.4-.47,4.53-1.42,1.13-.94,1.85-2.24,2.15-3.9.07-.61.1-1.01.1-1.21,0-1.28-.4-2.28-1.21-2.98-.81-.71-2.04-1.06-3.69-1.06Z"/>
          <path d="M502.32,117.82h-5.57l-1.87,10.57h5.62c1.92,0,3.44-.47,4.55-1.42,1.11-.94,1.82-2.23,2.12-3.85.07-.3.1-.74.1-1.32,0-2.66-1.65-4-4.96-4Z"/>
          <path d="M711.06,117.92h-5.92l-1.87,10.57h5.92c1.89,0,3.4-.47,4.53-1.42,1.13-.94,1.85-2.24,2.15-3.9.07-.61.1-1.01.1-1.21,0-1.28-.41-2.28-1.21-2.98-.81-.71-2.04-1.06-3.69-1.06Z"/>
          <polygon points="738.94 135.28 749.26 135.28 746.73 120.3 738.94 135.28"/>
          <path d="M834.51,118.23c-2.5,0-4.71.64-6.65,1.92-1.94,1.28-3.44,3-4.5,5.16-1.06,2.16-1.59,4.52-1.59,7.08,0,2.77.77,4.95,2.3,6.55,1.53,1.6,3.7,2.4,6.5,2.4,2.53,0,4.76-.64,6.7-1.92,1.94-1.28,3.44-3.01,4.5-5.19,1.06-2.18,1.59-4.54,1.59-7.11,0-2.77-.78-4.94-2.33-6.53-1.55-1.58-3.73-2.38-6.53-2.38Z"/>
          <path d="M573.2,118.23c-2.5,0-4.71.64-6.65,1.92-1.94,1.28-3.44,3-4.5,5.16-1.06,2.16-1.59,4.52-1.59,7.08,0,2.77.77,4.95,2.3,6.55,1.53,1.6,3.7,2.4,6.5,2.4,2.53,0,4.76-.64,6.7-1.92,1.94-1.28,3.44-3.01,4.5-5.19,1.06-2.18,1.59-4.54,1.59-7.11,0-2.77-.78-4.94-2.33-6.53-1.55-1.58-3.73-2.38-6.53-2.38Z"/>
          <path d="M331.25,100.31v55.05h568.75v-55.05H331.25ZM371.03,147.52h-7.13l-11.69-24.23-4.3,24.23h-7.13l6.27-35.36h7.08l11.74,24.28,4.3-24.28h7.08l-6.22,35.36ZM414.89,137.5c-1.79,3.24-4.28,5.78-7.49,7.61-3.2,1.84-6.81,2.76-10.83,2.76-2.97,0-5.59-.63-7.87-1.9-2.28-1.26-4.04-3.02-5.29-5.26-1.25-2.24-1.87-4.81-1.87-7.72,0-4.05.9-7.69,2.71-10.93,1.8-3.24,4.3-5.78,7.49-7.61,3.19-1.84,6.77-2.76,10.75-2.76,3,0,5.64.62,7.92,1.87,2.28,1.25,4.04,2.99,5.29,5.24,1.25,2.24,1.87,4.8,1.87,7.66,0,4.12-.89,7.79-2.68,11.03ZM452.08,147.52h-7.13l-11.69-24.23-4.3,24.23h-7.13l6.27-35.36h7.08l11.74,24.28,4.3-24.28h7.08l-6.22,35.36ZM481.99,132.44h-21.45v-5.97h21.45v5.97ZM514.41,123.13c-.34,1.89-1.1,3.66-2.28,5.31-1.18,1.65-2.81,2.99-4.88,4-2.07,1.01-4.56,1.52-7.46,1.52h-5.92l-2.38,13.56h-7.13l6.27-35.31h13c3.61,0,6.34.8,8.2,2.4,1.85,1.6,2.78,3.74,2.78,6.4,0,.78-.07,1.48-.2,2.12ZM547.55,123.03c-.4,2.29-1.44,4.38-3.11,6.25-1.67,1.87-3.9,3.18-6.7,3.92l5.92,14.32h-8.25l-5.26-13.76h-3.39l-2.43,13.76h-7.13l6.27-35.31h13.26c3.61,0,6.34.82,8.2,2.45,1.85,1.64,2.78,3.77,2.78,6.4,0,.64-.05,1.3-.15,1.97ZM586.55,137.5c-1.79,3.24-4.28,5.78-7.49,7.61-3.2,1.84-6.81,2.76-10.83,2.76-2.97,0-5.59-.63-7.87-1.9-2.28-1.26-4.04-3.02-5.29-5.26-1.25-2.24-1.87-4.81-1.87-7.72,0-4.05.9-7.69,2.71-10.93,1.8-3.24,4.3-5.78,7.49-7.61,3.19-1.84,6.77-2.76,10.75-2.76,3,0,5.64.62,7.92,1.87,2.28,1.25,4.04,2.99,5.29,5.24,1.25,2.24,1.87,4.8,1.87,7.66,0,4.12-.89,7.79-2.68,11.03ZM612.25,147.52h-18.77l6.27-35.31h7.08l-5.26,29.9h11.64l-.96,5.41ZM625.91,147.52h-7.13l6.27-35.31h7.08l-6.22,35.31ZM661.99,117.77h-14.67l-1.62,9.26h11.23l-.96,5.46h-11.28l-2.63,15.03h-7.13l6.27-35.31h21.81l-1.01,5.57ZM689.61,117.72h-13.41l-1.62,9.16h11.89l-.96,5.46h-11.89l-1.67,9.56h13.41l-1.01,5.62h-20.54l6.27-35.36h20.49l-.96,5.57ZM723.15,123.03c-.4,2.29-1.44,4.38-3.11,6.25-1.67,1.87-3.9,3.18-6.7,3.92l5.92,14.32h-8.25l-5.26-13.76h-3.39l-2.43,13.76h-7.13l6.27-35.31h13.26c3.61,0,6.34.82,8.2,2.45,1.85,1.64,2.78,3.77,2.78,6.4,0,.64-.05,1.3-.15,1.97ZM751.28,147.52l-1.11-6.73h-14.12l-3.49,6.73h-7.44l18.97-35.36h8.25l6.43,35.36h-7.49ZM794.89,117.77h-9.36l-5.26,29.75h-7.13l5.26-29.75h-9.41l1.01-5.57h25.9l-1.01,5.57ZM804,147.52h-7.13l6.27-35.31h7.08l-6.22,35.31ZM847.86,137.5c-1.79,3.24-4.28,5.78-7.49,7.61-3.2,1.84-6.81,2.76-10.83,2.76-2.97,0-5.59-.63-7.87-1.9-2.28-1.26-4.04-3.02-5.29-5.26-1.25-2.24-1.87-4.81-1.87-7.72,0-4.05.9-7.69,2.71-10.93s4.3-5.78,7.49-7.61c3.19-1.84,6.77-2.76,10.75-2.76,3,0,5.64.62,7.92,1.87,2.28,1.25,4.04,2.99,5.29,5.24,1.25,2.24,1.87,4.8,1.87,7.66,0,4.12-.89,7.79-2.68,11.03ZM885.05,147.52h-7.13l-11.69-24.23-4.3,24.23h-7.13l6.27-35.36h7.08l11.74,24.28,4.3-24.28h7.08l-6.22,35.36Z"/>
          <path d="M401.54,118.23c-2.5,0-4.71.64-6.65,1.92-1.94,1.28-3.44,3-4.5,5.16-1.06,2.16-1.59,4.52-1.59,7.08,0,2.77.77,4.95,2.3,6.55,1.53,1.6,3.7,2.4,6.5,2.4,2.53,0,4.76-.64,6.7-1.92,1.94-1.28,3.44-3.01,4.5-5.19,1.06-2.18,1.59-4.54,1.59-7.11,0-2.77-.78-4.94-2.33-6.53-1.55-1.58-3.73-2.38-6.53-2.38Z"/>
        </g>
        <g>
          <g>
            <path d="M718.52,15.2v13.13h-28.39v14.19h21.24v12.75h-21.24v27.22h-16.97V15.2h45.36Z"/>
            <path d="M744.3,15.2v40.26c0,4.03,1.02,7.13,3.08,9.3,2.05,2.17,5.06,3.26,9.03,3.26s7.01-1.09,9.13-3.26c2.12-2.17,3.18-5.27,3.18-9.3V15.2h16.97v40.16c0,6.01-1.32,11.09-3.97,15.24-2.65,4.15-6.2,7.28-10.67,9.39-4.47,2.11-9.45,3.16-14.94,3.16s-10.41-1.04-14.74-3.12c-4.33-2.08-7.76-5.21-10.27-9.39-2.52-4.19-3.77-9.28-3.77-15.29V15.2h16.97Z"/>
            <path d="M813.87,28.33v13.61h25.36v12.65h-25.36v14.76h28.33v13.13h-45.31V15.2h45.31v13.13h-28.33Z"/>
            <path d="M870.94,69.83h29.06v12.65h-46.04V15.2h16.97v54.64Z"/>
          </g>
          <g>
            <path d="M375.05,15.2v13.13h-27.41v14.19h20.51v12.75h-20.51v27.22h-16.39V15.2h43.8Z"/>
            <path d="M470.13,80.76c-3.9-1.6-7.01-3.96-9.35-7.09-2.33-3.13-3.56-6.9-3.69-11.31h17.44c.25,2.49,1.12,4.39,2.59,5.7,1.47,1.31,3.39,1.96,5.75,1.96s4.34-.56,5.75-1.68c1.41-1.12,2.11-2.67,2.11-4.65,0-1.66-.56-3.03-1.68-4.12-1.12-1.09-2.49-1.98-4.12-2.68-1.63-.7-3.95-1.5-6.95-2.4-4.35-1.34-7.89-2.68-10.64-4.03-2.75-1.34-5.11-3.32-7.09-5.94-1.98-2.62-2.97-6.04-2.97-10.26,0-6.26,2.27-11.17,6.81-14.71,4.54-3.55,10.45-5.32,17.73-5.32s13.39,1.77,17.92,5.32c4.54,3.55,6.96,8.48,7.28,14.81h-17.73c-.13-2.17-.93-3.88-2.4-5.13-1.47-1.25-3.35-1.87-5.66-1.87-1.98,0-3.58.53-4.79,1.58-1.21,1.05-1.82,2.57-1.82,4.55,0,2.17,1.02,3.87,3.07,5.08,2.04,1.21,5.24,2.52,9.59,3.93,4.34,1.47,7.87,2.88,10.59,4.22,2.71,1.34,5.06,3.29,7.05,5.85,1.98,2.56,2.97,5.85,2.97,9.87s-.97,7.32-2.92,10.45c-1.95,3.13-4.78,5.62-8.48,7.48-3.71,1.85-8.08,2.78-13.13,2.78s-9.33-.8-13.23-2.4Z"/>
            <path d="M529.08,80.76c-3.9-1.6-7.01-3.96-9.35-7.09-2.33-3.13-3.56-6.9-3.69-11.31h17.44c.25,2.49,1.12,4.39,2.59,5.7,1.47,1.31,3.39,1.96,5.75,1.96s4.34-.56,5.75-1.68c1.41-1.12,2.11-2.67,2.11-4.65,0-1.66-.56-3.03-1.68-4.12-1.12-1.09-2.49-1.98-4.12-2.68-1.63-.7-3.95-1.5-6.95-2.4-4.35-1.34-7.89-2.68-10.64-4.03-2.75-1.34-5.11-3.32-7.09-5.94-1.98-2.62-2.97-6.04-2.97-10.26,0-6.26,2.27-11.17,6.81-14.71,4.54-3.55,10.45-5.32,17.73-5.32s13.39,1.77,17.92,5.32c4.54,3.55,6.96,8.48,7.28,14.81h-17.73c-.13-2.17-.93-3.88-2.4-5.13-1.47-1.25-3.35-1.87-5.66-1.87-1.98,0-3.58.53-4.79,1.58-1.21,1.05-1.82,2.57-1.82,4.55,0,2.17,1.02,3.87,3.07,5.08,2.04,1.21,5.24,2.52,9.59,3.93,4.34,1.47,7.87,2.88,10.59,4.22,2.71,1.34,5.06,3.29,7.05,5.85,1.98,2.56,2.97,5.85,2.97,9.87s-.97,7.32-2.92,10.45c-1.95,3.13-4.78,5.62-8.48,7.48-3.71,1.85-8.08,2.78-13.13,2.78s-9.33-.8-13.23-2.4Z"/>
            <path d="M593.3,15.2v67.29h-16.39V15.2h16.39Z"/>
            <path d="M621.58,69.83h21.47v12.65h-37.86V15.2h16.39v54.64Z"/>
            <path d="M445.36,30.92c-3.04-5.24-7.19-9.33-12.46-12.27-5.27-2.94-11.07-4.41-17.4-4.41s-12.13,1.47-17.4,4.41c-5.27,2.94-9.46,7.03-12.56,12.27-3.1,5.24-4.65,11.15-4.65,17.73s1.55,12.51,4.65,17.78c3.1,5.27,7.28,9.38,12.56,12.32,5.27,2.94,11.07,4.41,17.4,4.41s12.11-1.47,17.35-4.41c5.24-2.94,9.39-7.05,12.46-12.32,3.07-5.27,4.6-11.2,4.6-17.78s-1.52-12.49-4.55-17.73ZM428.39,34.41c3.23,3.55,4.84,8.29,4.84,14.23,0,3.2-.5,6.05-1.45,8.57l-25.72-25.72c2.65-1.58,5.79-2.4,9.44-2.4,5.37,0,9.66,1.77,12.89,5.32ZM402.51,62.88c-3.23-3.55-4.84-8.29-4.84-14.23,0-3.17.46-5.98,1.36-8.46l25.67,25.67c-2.61,1.55-5.67,2.35-9.2,2.35-5.43,0-9.76-1.77-12.99-5.32Z"/>
          </g>
        </g>
      </g>
    </g>
  </g>
</svg>