<svg width="463" height="463" viewBox="0 0 463 463" fill="none" xmlns="http://www.w3.org/2000/svg">
<g clip-path="url(#clip0_1003_55095)">
<path d="M231.5 463C359.354 463 463 359.354 463 231.5C463 103.646 359.354 0 231.5 0C103.646 0 0 103.646 0 231.5C0 359.354 103.646 463 231.5 463Z" fill="#0277BD"/>
<path d="M56.9599 221.8C56.9599 217.47 57.74 213.19 59.31 208.96C60.87 204.73 63.16 200.95 66.15 197.62C69.15 194.29 72.8099 191.59 77.1399 189.53C81.4699 187.47 86.3999 186.43 91.9199 186.43C98.4499 186.43 104.09 187.86 108.85 190.73C113.61 193.59 117.16 197.32 119.49 201.92L108.9 209.21C107.97 207.21 106.83 205.53 105.5 204.17C104.17 202.81 102.74 201.72 101.2 200.92C99.6699 200.12 98.07 199.54 96.41 199.17C94.74 198.8 93.11 198.62 91.51 198.62C88.05 198.62 85.03 199.32 82.47 200.72C79.91 202.12 77.77 203.93 76.08 206.16C74.38 208.39 73.1 210.92 72.23 213.75C71.36 216.58 70.93 219.39 70.93 222.19C70.93 225.32 71.43 228.33 72.43 231.23C73.43 234.13 74.84 236.67 76.68 238.87C78.51 241.07 80.7099 242.83 83.2699 244.16C85.8299 245.49 88.6499 246.16 91.7099 246.16C93.3099 246.16 94.9699 245.96 96.6999 245.56C98.4299 245.16 100.08 244.53 101.64 243.66C103.2 242.8 104.65 241.68 105.98 240.31C107.31 238.95 108.38 237.3 109.18 235.37L120.47 241.86C119.34 244.52 117.72 246.87 115.63 248.9C113.53 250.93 111.17 252.65 108.54 254.04C105.91 255.44 103.1 256.5 100.1 257.24C97.0999 257.97 94.1699 258.34 91.3099 258.34C86.2499 258.34 81.62 257.28 77.43 255.14C73.23 253.01 69.6199 250.23 66.5899 246.8C63.5599 243.37 61.2 239.47 59.5 235.11C57.8 230.75 56.95 226.3 56.95 221.77L56.9599 221.8Z" fill="white"/>
<path d="M128.38 184.84H141.76V240.98C141.76 242.91 142.23 244.41 143.16 245.48C144.09 246.55 145.42 247.08 147.16 247.08C147.96 247.08 148.84 246.95 149.81 246.68C150.77 246.41 151.69 246.08 152.56 245.68L154.36 255.87C152.56 256.74 150.46 257.4 148.07 257.87C145.67 258.34 143.51 258.57 141.58 258.57C137.38 258.57 134.14 257.46 131.84 255.22C129.54 252.99 128.39 249.81 128.39 245.68V184.85L128.38 184.84Z" fill="white"/>
<path d="M160.65 198.13V184.84H174.03V198.13H160.65ZM160.65 257.76V205.42H174.03V257.76H160.65Z" fill="white"/>
<path d="M267.43 257.76H254.05V228.39C254.05 224.19 253.33 221.13 251.9 219.2C250.47 217.27 248.49 216.3 245.96 216.3C243.3 216.3 240.8 217.32 238.47 219.35C236.14 221.38 234.47 224.03 233.48 227.29V257.76H220.1V228.39C220.1 224.19 219.38 221.13 217.95 219.2C216.52 217.27 214.54 216.3 212.01 216.3C209.48 216.3 206.93 217.3 204.57 219.3C202.21 221.3 200.52 223.93 199.53 227.19V257.76H186.15V205.42H198.24V215.11C200.17 211.71 202.82 209.1 206.18 207.27C209.54 205.44 213.39 204.52 217.72 204.52C222.05 204.52 225.51 205.59 227.91 207.72C230.31 209.85 231.84 212.48 232.5 215.61C234.63 212.01 237.33 209.27 240.59 207.37C243.85 205.47 247.58 204.52 251.78 204.52C254.98 204.52 257.61 205.12 259.67 206.32C261.73 207.52 263.33 209.08 264.46 211.02C265.59 212.95 266.37 215.15 266.81 217.61C267.24 220.07 267.46 222.57 267.46 225.1V257.76H267.43Z" fill="white"/>
<path d="M293.4 258.76C290.87 258.76 288.51 258.34 286.31 257.51C284.11 256.68 282.21 255.51 280.62 254.01C279.02 252.51 277.77 250.76 276.87 248.77C275.97 246.77 275.52 244.58 275.52 242.18C275.52 239.78 276.07 237.44 277.17 235.34C278.27 233.24 279.8 231.46 281.77 230C283.73 228.53 286.08 227.39 288.81 226.55C291.54 225.72 294.54 225.3 297.8 225.3C300.13 225.3 302.41 225.5 304.64 225.9C306.87 226.3 308.85 226.87 310.58 227.6V224.6C310.58 221.14 309.6 218.47 307.63 216.61C305.67 214.75 302.75 213.81 298.89 213.81C296.09 213.81 293.36 214.31 290.7 215.31C288.03 216.31 285.31 217.78 282.51 219.71L278.41 211.22C285.14 206.76 292.39 204.53 300.19 204.53C307.99 204.53 313.56 206.38 317.72 210.07C321.88 213.77 323.96 219.11 323.96 226.1V242.38C323.96 243.78 324.21 244.78 324.71 245.38C325.21 245.98 326.02 246.31 327.16 246.38V257.77C324.89 258.24 322.93 258.47 321.27 258.47C318.74 258.47 316.79 257.9 315.43 256.77C314.06 255.64 313.21 254.14 312.88 252.27L312.58 249.37C310.25 252.43 307.42 254.76 304.09 256.36C300.76 257.96 297.2 258.76 293.4 258.76ZM297.2 248.97C299.46 248.97 301.61 248.57 303.64 247.77C305.67 246.97 307.25 245.91 308.38 244.57C309.84 243.44 310.58 242.17 310.58 240.77V234.78C308.98 234.18 307.25 233.7 305.39 233.33C303.52 232.97 301.73 232.78 300 232.78C296.54 232.78 293.71 233.56 291.51 235.13C289.31 236.7 288.21 238.68 288.21 241.07C288.21 243.34 289.07 245.22 290.81 246.71C292.54 248.21 294.67 248.96 297.2 248.96V248.97Z" fill="white"/>
<path d="M367.02 255.06C365.22 255.86 363.02 256.66 360.43 257.46C357.83 258.26 355.1 258.66 352.24 258.66C350.37 258.66 348.63 258.43 347 257.96C345.37 257.49 343.94 256.74 342.7 255.71C341.47 254.68 340.48 253.35 339.75 251.71C339.02 250.08 338.65 248.1 338.65 245.77V215.7H331.76V205.41H338.65V188.43H352.03V205.41H363.02V215.7H352.03V241.27C352.03 243.14 352.51 244.45 353.48 245.22C354.44 245.99 355.63 246.37 357.03 246.37C358.43 246.37 359.79 246.14 361.13 245.67C362.46 245.21 363.53 244.81 364.33 244.47L367.03 255.06H367.02Z" fill="white"/>
<path d="M396.99 258.76C392.79 258.76 389 258.04 385.6 256.61C382.2 255.18 379.31 253.23 376.91 250.77C374.51 248.31 372.66 245.44 371.37 242.18C370.07 238.92 369.42 235.49 369.42 231.89C369.42 228.29 370.05 224.65 371.32 221.35C372.58 218.05 374.42 215.16 376.81 212.66C379.21 210.16 382.12 208.18 385.55 206.72C388.98 205.26 392.82 204.52 397.09 204.52C401.36 204.52 405.16 205.25 408.53 206.72C411.89 208.19 414.76 210.15 417.12 212.61C419.48 215.07 421.28 217.94 422.51 221.2C423.74 224.46 424.36 227.86 424.36 231.39C424.36 232.26 424.34 233.09 424.31 233.89C424.28 234.69 424.19 235.36 424.06 235.89H383.6C383.8 237.96 384.3 239.79 385.1 241.38C385.9 242.97 386.93 244.34 388.2 245.48C389.46 246.61 390.9 247.48 392.5 248.08C394.1 248.68 395.76 248.98 397.49 248.98C400.15 248.98 402.67 248.33 405.03 247.03C407.39 245.73 409.01 244.02 409.87 241.89L421.36 245.09C419.43 249.09 416.35 252.37 412.12 254.93C407.89 257.49 402.85 258.78 396.99 258.78V258.76ZM410.57 227.19C410.24 223.26 408.79 220.12 406.23 217.75C403.67 215.39 400.55 214.2 396.89 214.2C395.09 214.2 393.41 214.52 391.85 215.15C390.28 215.78 388.9 216.66 387.7 217.8C386.5 218.93 385.52 220.3 384.75 221.9C383.98 223.5 383.53 225.26 383.4 227.19H410.57Z" fill="white"/>
<path d="M61.25 350.66V279.74H91.32C94.58 279.74 97.6 280.42 100.36 281.79C103.12 283.16 105.5 284.95 107.5 287.18C109.5 289.41 111.06 291.94 112.2 294.77C113.33 297.6 113.9 300.45 113.9 303.31C113.9 306.17 113.37 309.22 112.3 312.05C111.23 314.88 109.74 317.39 107.8 319.59C105.87 321.79 103.54 323.55 100.81 324.89C98.08 326.22 95.08 326.89 91.82 326.89H75.04V350.66H61.26H61.25ZM75.03 314.8H91.01C93.54 314.8 95.66 313.77 97.35 311.7C99.05 309.64 99.9 306.84 99.9 303.31C99.9 301.51 99.63 299.9 99.1 298.46C98.57 297.03 97.87 295.81 97 294.81C96.13 293.81 95.12 293.06 93.95 292.56C92.78 292.06 91.6 291.81 90.4 291.81H75.02V314.79L75.03 314.8Z" fill="white"/>
<path d="M122.09 277.74H135.48V333.88C135.48 335.81 135.95 337.31 136.88 338.38C137.81 339.45 139.14 339.98 140.88 339.98C141.68 339.98 142.56 339.85 143.53 339.58C144.49 339.31 145.41 338.98 146.28 338.58L148.08 348.77C146.28 349.64 144.18 350.3 141.79 350.77C139.39 351.24 137.23 351.47 135.3 351.47C131.1 351.47 127.86 350.36 125.56 348.12C123.26 345.89 122.11 342.71 122.11 338.58V277.75L122.09 277.74Z" fill="white"/>
<path d="M168.64 351.66C166.11 351.66 163.75 351.24 161.55 350.41C159.35 349.58 157.45 348.41 155.86 346.91C154.26 345.41 153.01 343.66 152.11 341.67C151.21 339.67 150.76 337.47 150.76 335.08C150.76 332.69 151.31 330.33 152.41 328.24C153.51 326.14 155.04 324.36 157.01 322.9C158.97 321.44 161.32 320.29 164.05 319.45C166.78 318.62 169.78 318.2 173.04 318.2C175.37 318.2 177.65 318.4 179.88 318.8C182.11 319.2 184.09 319.77 185.82 320.5V317.5C185.82 314.04 184.84 311.37 182.87 309.51C180.91 307.65 177.99 306.71 174.13 306.71C171.33 306.71 168.6 307.21 165.94 308.21C163.27 309.21 160.55 310.68 157.75 312.6L153.65 304.11C160.38 299.65 167.63 297.42 175.43 297.42C183.23 297.42 188.8 299.27 192.96 302.96C197.12 306.66 199.2 312 199.2 318.99V335.27C199.2 336.67 199.45 337.67 199.95 338.27C200.45 338.87 201.26 339.2 202.4 339.27V350.66C200.13 351.13 198.17 351.36 196.51 351.36C193.98 351.36 192.03 350.79 190.67 349.66C189.3 348.53 188.45 347.03 188.12 345.16L187.82 342.26C185.49 345.32 182.66 347.65 179.33 349.25C176 350.85 172.44 351.65 168.64 351.65V351.66ZM172.44 341.87C174.7 341.87 176.85 341.47 178.88 340.67C180.91 339.87 182.49 338.81 183.62 337.47C185.08 336.34 185.82 335.07 185.82 333.67V327.68C184.22 327.08 182.49 326.6 180.63 326.23C178.76 325.87 176.97 325.68 175.24 325.68C171.78 325.68 168.95 326.46 166.75 328.03C164.55 329.6 163.45 331.57 163.45 333.97C163.45 336.24 164.31 338.12 166.05 339.61C167.78 341.11 169.91 341.86 172.44 341.86V341.87Z" fill="white"/>
<path d="M259.04 350.66H245.66V321.29C245.66 317.09 244.93 314.03 243.46 312.1C241.99 310.17 239.96 309.2 237.37 309.2C236.04 309.2 234.67 309.47 233.27 310C231.87 310.53 230.56 311.28 229.32 312.25C228.09 313.22 226.97 314.36 225.97 315.7C224.97 317.03 224.24 318.5 223.77 320.09V350.66H210.39V298.32H222.48V308.01C224.41 304.68 227.21 302.08 230.87 300.22C234.53 298.36 238.66 297.42 243.26 297.42C246.52 297.42 249.19 298.02 251.25 299.22C253.31 300.42 254.91 301.98 256.04 303.92C257.17 305.85 257.95 308.05 258.39 310.51C258.82 312.97 259.04 315.47 259.04 318V350.66Z" fill="white"/>
<path d="M97.7099 169.41V137.92L85.4499 161.37H80.4199L68.1599 137.92V169.41H58.9099V121.84H68.8299L82.8999 148.91L97.0999 121.84H106.95V169.41H97.6999H97.7099Z" fill="white"/>
<path d="M123.04 121.84L134.76 144.75L146.69 121.84H156.67L139.38 152.79V169.41H130.2V152.66L112.98 121.84H123.03H123.04Z" fill="white"/>
</g>
<defs>
<clipPath id="clip0_1003_55095">
<rect width="463" height="463" fill="white"/>
</clipPath>
</defs>
</svg>
