<?xml version="1.0" encoding="UTF-8" standalone="no"?>
<!-- Created with Inkscape (http://www.inkscape.org/) -->

<svg
   width="14.468pc"
   height="11.02715pc"
   viewBox="0 0 122.49575 93.363203"
   version="1.1"
   id="svg5"
   xml:space="preserve"
   inkscape:version="1.4.2 (ebf0e940, 2025-05-08)"
   sodipodi:docname="WiFi_icon.svg"
   xmlns:inkscape="http://www.inkscape.org/namespaces/inkscape"
   xmlns:sodipodi="http://sodipodi.sourceforge.net/DTD/sodipodi-0.dtd"
   xmlns="http://www.w3.org/2000/svg"
   xmlns:svg="http://www.w3.org/2000/svg"><sodipodi:namedview
     id="namedview7"
     pagecolor="#ffffff"
     bordercolor="#cccccc"
     borderopacity="1"
     inkscape:showpageshadow="0"
     inkscape:pageopacity="1"
     inkscape:pagecheckerboard="0"
     inkscape:deskcolor="#d1d1d1"
     inkscape:document-units="mm"
     showgrid="false"
     inkscape:zoom="1"
     inkscape:cx="516"
     inkscape:cy="433"
     inkscape:window-width="1752"
     inkscape:window-height="1153"
     inkscape:window-x="90"
     inkscape:window-y="44"
     inkscape:window-maximized="0"
     inkscape:current-layer="layer2"><inkscape:grid
       id="grid2"
       units="mm"
       originx="-216.84389"
       originy="-226.42339"
       spacingx="0.99999999"
       spacingy="0.99999999"
       empcolor="#0099e5"
       empopacity="0.30196078"
       color="#0099e5"
       opacity="0.14901961"
       empspacing="5"
       enabled="true"
       visible="false" /></sodipodi:namedview><defs
     id="defs2" /><g
     inkscape:label="Layer 1"
     inkscape:groupmode="layer"
     id="layer1"
     transform="matrix(1.0952938,0,0,1.0952938,-219.28578,-246.38256)" /><g
     inkscape:groupmode="layer"
     id="layer2"
     inkscape:label="Layer 2"
     transform="matrix(6.6335857,0,0,6.6335857,-1137.1933,-1229.6164)"><g
       id="g3"
       transform="translate(0,0.97279156)"><g
         id="g3252"
         transform="matrix(0.40069426,0,0,0.41173896,118.72758,117.66104)"><g
           id="g4453"><g
             id="g4456"
             transform="translate(1.0503916,0.82962113)"><g
               id="g4461"><path
                 style="fill:none;stroke:#00857d;stroke-width:2.5;stroke-linecap:round;stroke-dasharray:none;stroke-opacity:1"
                 d="m 142.80339,169.06114 c 6.14183,-5.63952 15.29218,-5.63698 21.43125,0 m -17.99166,3.96875 c 4.46042,-3.85683 10.09594,-3.85316 14.55208,0 m -10.84792,3.70416 c 2.51918,-1.6597 4.62458,-1.6597 7.14375,0"
                 id="path3096"
                 sodipodi:nodetypes="cccccc"
                 transform="translate(-1.6331036e-6)" /><circle
                 style="fill:#00857d;fill-opacity:1;stroke-width:2.29257"
                 id="path3246"
                 cx="153.51901"
                 cy="180.72375"
                 r="1.25" /></g></g></g></g><g
         style="overflow:visible"
         id="g2"
         transform="matrix(0.00594141,0,0,0.00594141,172.70589,194.08656)"><g
           id="g11">
	<g
   id="g6">
		<g
   id="g1">
			<path
   fill="#e50b12"
   d="m 2532.7,27.1 c 0,-5.2 1.4,-9.2 4.1,-12 2.8,-2.8 6.7,-4.3 11.7,-4.3 4.7,0 8.6,1.5 11.5,4.4 3,3 4.5,6.9 4.5,11.8 0,5.2 -1.4,9.2 -4.1,12.1 -2.8,2.9 -6.7,4.4 -11.9,4.4 -4.7,0 -8.5,-1.5 -11.5,-4.6 -2.8,-3.1 -4.3,-7 -4.3,-11.8 z"
   id="path1" />
		</g>
		<path
   fill="#e50b12"
   d="m 2645.3,111.5 c 0,-16.7 -5.1,-30.2 -15.1,-40 -10,-9.8 -24.3,-14.7 -42.4,-14.7 -18.2,0 -32.5,5.3 -42.5,15.9 -10,10.5 -15,25.5 -15,44.4 0,13.6 2.8,26.1 8.4,37.3 2.7,5.4 6.8,5 9,4.3 l 10.6,-3.6 c 2.5,-0.9 4.2,-2.2 4.9,-3.9 0.7,-1.7 0.6,-3.6 -0.4,-5.8 -3.9,-8.1 -5.8,-16.7 -5.8,-25.4 0,-7.7 1.8,-14 5.3,-18.6 3.1,-4.1 7.3,-6.8 12.6,-8.2 V 156 c 0,4.7 2.6,7.4 7.2,7.4 h 9.8 c 16,0 29.1,-4.6 38.7,-13.7 9.8,-9.2 14.7,-22 14.7,-38.2 z m -48,19.2 V 91.9 c 14.4,1.6 21.4,8.3 21.4,20.2 0,6.2 -1.8,10.7 -5.6,13.8 -3.7,3.1 -9,4.7 -15.8,4.8 z"
   id="path2" />
		<path
   fill="#e50b12"
   d="m 2645.3,228.4 c 0,-15.7 -2.7,-29.8 -8,-42 -1.9,-4.1 -5.1,-5.6 -9,-4.2 l -12.4,4 c -2.4,0.7 -4,1.9 -4.8,3.5 -0.8,1.6 -0.7,3.6 0.2,5.7 3.6,9.8 5.5,19.3 5.5,28.2 0,12.6 -4.3,18.8 -13.2,18.8 h -2 c -0.2,-8.3 -0.5,-15.5 -1.1,-21.3 -0.6,-6.3 -1.7,-12.6 -3.1,-18.8 -1.5,-6.3 -3.6,-11.5 -6.3,-15.2 -2.7,-3.8 -6.4,-7 -10.9,-9.3 -4.5,-2.3 -9.9,-3.5 -16.1,-3.5 -10.7,0 -18.9,3.3 -24.6,9.9 -5.6,6.5 -8.5,15.2 -8.5,25.9 0,14.9 4.1,26.3 12.3,34 l -4.8,0.7 c -3.8,0.7 -5.9,3.3 -5.9,7.4 v 18.2 c 0,4.6 2.7,7.2 7.4,7.2 h 65.3 c 26.6,0.1 40,-16.5 40,-49.2 z m -89.5,-6.2 c 0,-4.2 1,-7.5 3,-9.8 1.9,-2.3 4.4,-3.4 7.6,-3.4 5.2,0 8.7,2.5 10.6,7.6 2,5.4 3.2,14 3.5,25.8 h -6.5 c -5.6,0 -9.9,-1.6 -13.2,-5 -3.3,-3.3 -5,-8.4 -5,-15.2 z"
   id="path3" />
		<path
   fill="#e50b12"
   d="m 2644.1,356.9 c 0,-7.6 -2.1,-14.3 -6.3,-20 -2.8,-3.9 -6,-7 -9.5,-9.5 l 8.1,-1 c 4.1,-0.5 6.4,-3.2 6.4,-7.4 v -19.4 c 0,-4.7 -2.6,-7.4 -7.2,-7.4 h -95.5 c -4.7,0 -7.4,2.7 -7.4,7.4 v 21.6 c 0,4.6 2.7,7.2 7.4,7.2 h 45.7 c 6.9,0 12.6,2 17,5.9 4.4,3.9 6.6,9 6.6,15.5 0,1.1 -0.1,2.5 -0.2,3.9 -0.1,1.6 -0.2,2.7 -0.2,3.5 0,4.2 2.3,6.6 6.2,6.6 h 22 c 4.5,0.2 6.9,-2.4 6.9,-6.9 z"
   id="path4" />
		<path
   fill="#e50b12"
   d="m 2645.3,523.4 c 0,-13.3 -3.8,-23.4 -11.4,-30.2 h 37.3 c 4.6,0 7.2,-2.7 7.2,-7.4 v -21.6 c 0,-4.6 -2.6,-7.2 -7.2,-7.2 h -131.1 c -4.7,0 -7.4,2.6 -7.4,7.2 v 21.6 c 0,4.7 2.6,7.4 7.2,7.4 h 55.1 c 5.9,0 10.7,1.5 14.3,4.4 3.5,2.9 5.1,7.1 5.1,13 0,5.1 -1.3,8.8 -4,10.9 -2.8,2.2 -7.2,3.3 -13,3.3 h -57.3 c -4.7,0 -7.4,2.6 -7.4,7.2 v 21.6 c 0,4.7 2.7,7.4 7.4,7.4 h 63.3 c 27.9,0.1 41.9,-12.6 41.9,-37.6 z"
   id="path5" />
		<path
   fill="#e50b12"
   d="m 2643.2,439.2 v -11.5 h 19.1 c 4.2,0 6.6,-2.7 6.6,-7.4 v -20 c 0,-4.7 -2.4,-7.4 -6.6,-7.4 h -19.1 v -10.4 c 0,-4.7 -2.7,-7.4 -7.4,-7.4 h -16.3 c -4.6,0 -7.2,2.7 -7.2,7.4 v 10 h -45.6 v 0 H 2539 c -4.2,0 -6.6,2.7 -6.6,7.4 v 20.8 c 0,4.7 2.4,7.4 6.6,7.4 h 37.2 v 0 h 36 v 11.1 c 0,4.6 2.6,7.2 7.2,7.2 h 16.3 c 4.8,0.1 7.5,-2.6 7.5,-7.2 z"
   id="path6" />
	</g>
	<path
   fill="#e50b12"
   d="m 1926.8,536.1 c 0,18.9 -9.3,28.1 -28.1,28.1 h -109.2 c -16.3,0 -27.4,-5.7 -33.8,-17.3 L 1617.5,295.6 v 240.2 c 0,18.9 -9.3,28.1 -28.1,28.1 h -108.5 c -18.9,0 -28.1,-9.3 -28.1,-28.1 V 36.9 c 0,-18.9 9.3,-28.1 28.1,-28.1 h 109.2 c 16.3,0 27.4,5.7 33.8,17.3 l 138.2,251.3 V 37.2 c 0,-18.9 9.3,-28.1 28.1,-28.1 h 108.5 c 18.9,0 28.1,9.3 28.1,28.1 z"
   id="path7" />
	<path
   fill="#e50b12"
   d="m 396.6,501 c -20.9,26.6 -47.3,45.4 -79,56 -31.8,10.8 -67.7,16 -107.9,16 C 130.7,573 66.6,559.8 17.3,533.7 1.5,526 -3.4,514.1 2.3,498.3 l 27.4,-73.1 c 7.2,-18.3 19.4,-23.8 36.2,-16.5 38.2,15.8 75.4,23.5 111.6,23.5 52.9,0 79.3,-11.1 79.3,-33.1 0,-9.3 -5.9,-17.6 -18.1,-24.3 -12.1,-6.7 -32.3,-15 -60.4,-24.3 -20.4,-6.7 -37.4,-12.9 -51.1,-18.3 -13.7,-5.4 -28.7,-13.4 -45.4,-24 C 65,297.6 51.6,286.3 41.8,274.1 32,262 23.7,246.2 17,227.1 10.3,208 6.4,186.4 6.4,162.4 6.4,54.2 77.9,0 220.7,0 c 69.2,0 125.5,12.1 169.7,36.2 15.8,8.3 20.7,20.1 15,35.4 l -26.6,69.2 c -6.7,16.8 -18.9,22.2 -36.2,16.5 -33.1,-11.1 -67.4,-16.5 -103.5,-16.5 -19.9,0 -35.1,1.8 -45.4,5.4 -10.6,3.6 -15.8,11.4 -15.8,22.7 0,9.3 5.9,17.8 17.6,25 11.9,7.2 31.8,16.3 60.2,26.6 l 34.6,12.9 c 6.2,2.3 16.5,6.5 30.7,12.7 14.2,5.9 24.3,11.1 30.2,15.2 5.9,4.1 14.2,10.1 24.8,17.3 10.6,7.2 18.1,14.7 22.7,21.9 4.6,7.2 9.8,16 15.2,25.8 5.4,9.8 9.3,21.2 11.4,33.3 2.1,12.1 3.1,25.8 3.1,40.5 -0.3,40.4 -10.9,74 -31.8,100.9 z"
   id="path8" />
	<path
   fill="#e50b12"
   d="M 1410.8,530.7 1243.2,33.8 c -5.7,-16.8 -17,-25 -33.8,-25 h -38 -93 -35.4 c -16.8,0 -27.9,8.3 -33.8,25 L 841.7,530.7 c -3.6,10.1 -3.4,18.1 0.8,24.3 4.1,6.2 11.1,9.3 20.4,9.3 h 116.7 c 18.3,0 30,-8.5 34.6,-25.8 l 4.9,-17 h 78 c 8.3,0 12.1,-4.1 12.1,-12.4 V 409 c 0,-8.3 -4.1,-12.4 -12.1,-12.4 h -42.3 l 70.5,-227.8 71.8,227.8 h -41.6 c -8.3,0 -12.1,4.1 -12.1,12.4 v 100 c 0,8.3 4.1,12.4 12.1,12.4 h 78 l 4.9,17 c 4.6,17.3 16.3,25.8 34.6,25.8 h 116.7 c 9.3,0 16.3,-3.1 20.4,-9.3 4.3,-6.2 4.6,-14.2 0.7,-24.2 z"
   id="path9" />
	<path
   fill="#e50b12"
   d="M 879.2,131.2 V 36.9 C 879.2,18 869.9,8.8 851.1,8.8 H 479 c -18.9,0 -28.1,9.3 -28.1,28.1 v 94.3 c 0,18.9 9.3,28.1 28.1,28.1 h 100.5 v 376.8 c 0,18.9 9.3,28.1 28.1,28.1 h 114.7 c 18.9,0 28.1,-9.3 28.1,-28.1 V 159.3 h 100.5 c 19,0 28.3,-9.3 28.3,-28.1 z"
   id="path10" />
	<path
   fill="#e50b12"
   d="m 2031.2,564.5 c -18.9,0 -28.1,-9.3 -28.1,-28.1 V 36.9 c 0,-18.9 9.3,-28.1 28.1,-28.1 h 175.1 c 92.2,0 160.6,22.2 205.3,66.6 44.7,44.4 67.1,114.9 67.1,211.2 0,96.3 -22.5,166.6 -67.1,211.2 -44.7,44.7 -113.1,66.6 -205.3,66.6 H 2031.2 Z M 2174,156.2 v 260.6 h 24.3 c 38.2,0 65.6,-9.3 82.4,-27.9 16.8,-18.6 25,-52.7 25,-102.5 0,-49.8 -8.3,-83.9 -25,-102.5 -16.8,-18.6 -44.2,-27.9 -82.4,-27.9 H 2174 Z"
   id="path11"
   style="display:inline" />
</g></g></g></g></svg>
