<?xml version="1.0" encoding="UTF-8" standalone="no"?>
<svg
   id="Layer_2"
   data-name="Layer 2"
   viewBox="0 0 900 296.32"
   version="1.1"
   sodipodi:docname="fft-logo.svg"
   inkscape:version="1.4.2 (ebf0e940, 2025-05-08)"
   xmlns:inkscape="http://www.inkscape.org/namespaces/inkscape"
   xmlns:sodipodi="http://sodipodi.sourceforge.net/DTD/sodipodi-0.dtd"
   xmlns:xlink="http://www.w3.org/1999/xlink"
   xmlns="http://www.w3.org/2000/svg"
   xmlns:svg="http://www.w3.org/2000/svg">
  <sodipodi:namedview
     id="namedview43"
     pagecolor="#051d60"
     bordercolor="#000000"
     borderopacity="0.25"
     inkscape:showpageshadow="2"
     inkscape:pageopacity="0.0"
     inkscape:pagecheckerboard="0"
     inkscape:deskcolor="#d1d1d1"
     inkscape:zoom="0.70194383"
     inkscape:cx="398.89232"
     inkscape:cy="171.66616"
     inkscape:window-width="1792"
     inkscape:window-height="880"
     inkscape:window-x="3292"
     inkscape:window-y="303"
     inkscape:window-maximized="0"
     inkscape:current-layer="Layer_2" />
  <defs
     id="defs1">
    <color-profile
       name="SMPTE-RP-431-2-2007-DCI-P3"
       xlink:href="file:///System/Library/ColorSync/Profiles/DCI(P3)%20RGB.icc"
       id="color-profile1" />
    <inkscape:path-effect
       effect="fillet_chamfer"
       id="path-effect44"
       is_visible="true"
       lpeversion="1"
       nodesatellites_param="F,0,0,1,0,0,0,1 @ F,0,0,1,0,0,0,1 @ F,0,0,1,0,0,0,1 @ F,0,0,1,0,0,0,1"
       radius="0"
       unit="px"
       method="auto"
       mode="F"
       chamfer_steps="1"
       flexible="false"
       use_knot_distance="true"
       apply_no_radius="true"
       apply_with_radius="true"
       only_selected="false"
       hide_knots="false" />
    <style
       id="style1">
      .cls-1 {
        fill: #fff;
      }

      .cls-2 {
        fill: #ff5203;
      }
    </style>
  </defs>
  <g
     id="Logo"
     style="display:inline;stroke:none;stroke-opacity:1">
    <g
       id="g43"
       style="stroke:none;stroke-opacity:1">
      <g
         id="g5"
         style="stroke:none;stroke-opacity:1">
        <circle
           class="cls-2"
           cx="148.16"
           cy="148.16"
           r="148.16"
           id="circle1"
           style="stroke:none;stroke-opacity:1" />
        <path
           class="cls-1"
           d="m 91.47,37.17 c 0,0 -4.85,-5.5 0,-8.41 4.85,-2.91 6.7,-1.62 10.26,-3.24 3.56,-1.62 3.33,-4.62 9.48,-4.3 l -7.4,8.05 -3.55,0.28 z"
           id="path1"
           style="stroke:none;stroke-opacity:1" />
        <polygon
           class="cls-1"
           points="111.21,25.94 118,25.2 123.5,17.12 139.03,17.12 142.59,21.94 127.71,43.64 118.97,43 109.59,52.7 106.03,46.56 106.03,40.41 104.09,33.62 "
           id="polygon1"
           style="stroke:none;stroke-opacity:1" />
        <polygon
           class="cls-1"
           points="198.99,218.24 198.99,206.81 210.21,193.44 210.21,205.84 "
           id="polygon2"
           style="stroke:none;stroke-opacity:1" />
        <polygon
           class="cls-1"
           points="267.58,153.97 267.58,164.97 277.29,180.07 278.37,168.85 "
           id="polygon3"
           style="stroke:none;stroke-opacity:1" />
        <path
           class="cls-1"
           d="m 224.77,34.91 h -10.03 l -2.59,5.18 H 200.5 l -4.53,5.18 H 180.76 L 173,34.92 h -9.64 l -7.83,12.94 v 7.12 l 5.82,8.09 -5.18,7.03 h -7.44 l -10.68,12.7 v 11 l 3.24,3.24 7.12,-0.32 11.97,-15.21 5.82,8.74 h 11.32 l 3.24,-5.18 h 5.18 l 4.21,7.12 v 8.74 l -3.88,6.15 h -16.18 l -9.06,-11.32 -7.76,8.74 h -16.5 l -13.43,19.74 v 22.32 l 11.16,15.53 h 15.21 l 13.65,17.47 v 25.56 l 3.82,4.85 v 17.79 l 8.09,11.32 h 6.79 l 11.97,-15.53 v -17.79 l 6.79,-7.76 v -21.35 l 15.21,-18.44 v -12.62 l -5.18,-7.44 7.76,-11.32 v -8.09 l 4.53,-3.56 8.09,1.62 19.74,25.56 10.03,-13.91 4.85,5.18 0.65,11 5.82,7.76 h 9.71 l 6.25,-7.05 c -0.72,-36.37 -15.22,-70.45 -41.02,-96.24 -1.87,-1.87 -3.79,-3.68 -5.75,-5.43 l -8.02,1.64 -8.74,-10.35 z"
           id="path3"
           style="stroke:none;stroke-opacity:1" />
        <path
           class="cls-1"
           d="m 99.56,212.53 v -11.32 l 6.47,-8.74 v -10.68 l -8.41,-9.71 -8.09,-0.32 -9.71,-13.91 -6.79,-0.65 -6.79,-11.97 H 53.62 l -7.76,12.29 -4.21,-5.18 -0.65,-12.62 -4.53,-6.15 v -5.82 l -4.21,5.82 -4.53,-4.53 -0.22,-9.38 7.55,-11.22 11.65,0.22 c 0,0 1.23,5 1.4,6.15 h 3.88 L 51.34,106.72 66.87,88.93 78.52,87.96 93.4,70.08 87.58,60.14 h -6.79 l -8.41,9.94 c 0,0 -4.85,3.15 -8.41,0 -3.56,-3.15 3.56,-9.94 3.56,-9.94 l 9.71,-9.06 h 5.18 l 7.44,-8.74 -1.62,-3.88 -4.53,3.88 -7.76,1.29 -20.38,9.06 -1.29,-4.85 -8.21,4.3 C 28.75,70.53 16.94,92.8 11.48,116.96 l 33.42,48.65 3.88,23.29 13.59,15.53 15.53,46.59 14.24,15.21 h 4.53 l -7.76,-9.06 c 0,0 -0.32,-5.5 -2.59,-7.12 0,0 -0.97,-2.91 1.29,-5.18 2.26,-2.26 -0.97,-5.5 -0.32,-10.35 0.65,-4.85 12.29,-22 12.29,-22 z"
           id="path4"
           style="stroke:none;stroke-opacity:1" />
        <path
           class="cls-2"
           d="m 148.16,8 c 37.44,0 72.64,14.58 99.11,41.05 26.47,26.47 41.05,61.67 41.05,99.11 0,37.44 -14.58,72.64 -41.05,99.11 -26.47,26.47 -61.67,41.05 -99.11,41.05 -37.44,0 -72.64,-14.58 -99.11,-41.05 C 22.58,220.8 8,185.6 8,148.16 8,110.72 22.58,75.52 49.05,49.05 75.52,22.58 110.72,8 148.16,8 m 0,-8 C 66.33,0 0,66.33 0,148.16 c 0,81.83 66.33,148.16 148.16,148.16 81.83,0 148.16,-66.33 148.16,-148.16 C 296.32,66.33 229.99,0 148.16,0 Z"
           id="path5"
           style="stroke:none;stroke-opacity:1" />
      </g>
      <g
         id="g42"
         style="stroke:none;stroke-opacity:1">
        <g
           id="g24"
           style="stroke:none;stroke-opacity:1">
          <rect
             class="cls-2"
             x="331.25"
             y="100.31"
             width="568.75"
             height="55.049999"
             id="rect5"
             style="stroke:none;stroke-opacity:1" />
          <g
             id="g23"
             style="stroke:none;stroke-opacity:1">
            <g
               id="g8"
               style="stroke:none;stroke-opacity:1">
              <path
                 class="cls-1"
                 d="m 371.03,147.52 h -7.13 l -11.69,-24.23 -4.3,24.23 h -7.13 l 6.27,-35.36 h 7.08 l 11.74,24.28 4.3,-24.28 h 7.08 z"
                 id="path6"
                 style="stroke:none;stroke-opacity:1" />
              <path
                 class="cls-1"
                 d="m 388.71,145.98 c -2.28,-1.26 -4.04,-3.02 -5.29,-5.26 -1.25,-2.24 -1.87,-4.81 -1.87,-7.72 0,-4.05 0.9,-7.69 2.71,-10.93 1.8,-3.24 4.3,-5.78 7.49,-7.61 3.19,-1.84 6.77,-2.76 10.75,-2.76 3,0 5.64,0.62 7.92,1.87 2.28,1.25 4.04,2.99 5.29,5.24 1.25,2.24 1.87,4.8 1.87,7.66 0,4.12 -0.89,7.79 -2.68,11.03 -1.79,3.24 -4.28,5.78 -7.49,7.61 -3.2,1.84 -6.81,2.76 -10.83,2.76 -2.97,0 -5.59,-0.63 -7.87,-1.9 z m 15.58,-6.56 c 1.94,-1.28 3.44,-3.01 4.5,-5.19 1.06,-2.18 1.59,-4.54 1.59,-7.11 0,-2.77 -0.78,-4.94 -2.33,-6.53 -1.55,-1.58 -3.73,-2.38 -6.53,-2.38 -2.5,0 -4.71,0.64 -6.65,1.92 -1.94,1.28 -3.44,3 -4.5,5.16 -1.06,2.16 -1.59,4.52 -1.59,7.08 0,2.77 0.77,4.95 2.3,6.55 1.53,1.6 3.7,2.4 6.5,2.4 2.53,0 4.76,-0.64 6.7,-1.92 z"
                 id="path7"
                 style="stroke:none;stroke-opacity:1" />
              <path
                 class="cls-1"
                 d="m 452.08,147.52 h -7.13 l -11.69,-24.23 -4.3,24.23 h -7.13 l 6.27,-35.36 h 7.08 l 11.74,24.28 4.3,-24.28 h 7.08 z"
                 id="path8"
                 style="stroke:none;stroke-opacity:1" />
            </g>
            <path
               class="cls-1"
               d="m 481.99,126.47 v 5.97 h -21.45 v -5.97 z"
               id="path9"
               style="stroke:none;stroke-opacity:1" />
            <g
               id="g22"
               style="stroke:none;stroke-opacity:1">
              <path
                 class="cls-1"
                 d="m 512.13,128.45 c -1.18,1.65 -2.81,2.99 -4.88,4 -2.07,1.01 -4.56,1.52 -7.46,1.52 h -5.92 l -2.38,13.56 h -7.13 l 6.27,-35.31 h 13 c 3.61,0 6.34,0.8 8.2,2.4 1.85,1.6 2.78,3.74 2.78,6.4 0,0.78 -0.07,1.48 -0.2,2.12 -0.34,1.89 -1.1,3.66 -2.28,5.31 z m -7.08,-1.47 c 1.11,-0.94 1.82,-2.23 2.12,-3.85 0.07,-0.3 0.1,-0.74 0.1,-1.32 0,-2.66 -1.65,-4 -4.96,-4 h -5.57 l -1.87,10.57 h 5.62 c 1.92,0 3.44,-0.47 4.55,-1.42 z"
                 id="path10"
                 style="stroke:none;stroke-opacity:1" />
              <path
                 class="cls-1"
                 d="m 544.92,114.66 c 1.85,1.64 2.78,3.77 2.78,6.4 0,0.64 -0.05,1.3 -0.15,1.97 -0.4,2.29 -1.44,4.38 -3.11,6.25 -1.67,1.87 -3.9,3.18 -6.7,3.92 l 5.92,14.32 h -8.25 l -5.26,-13.76 h -3.39 l -2.43,13.76 h -7.13 l 6.27,-35.31 h 13.26 c 3.61,0 6.34,0.82 8.2,2.45 z m -4.56,7.31 c 0,-1.28 -0.4,-2.28 -1.21,-2.98 -0.81,-0.71 -2.04,-1.06 -3.69,-1.06 h -5.92 l -1.87,10.57 h 5.92 c 1.89,0 3.4,-0.47 4.53,-1.42 1.13,-0.94 1.85,-2.24 2.15,-3.9 0.07,-0.61 0.1,-1.01 0.1,-1.21 z"
                 id="path11"
                 style="stroke:none;stroke-opacity:1" />
              <path
                 class="cls-1"
                 d="m 560.37,145.98 c -2.28,-1.26 -4.04,-3.02 -5.29,-5.26 -1.25,-2.24 -1.87,-4.81 -1.87,-7.72 0,-4.05 0.9,-7.69 2.71,-10.93 1.8,-3.24 4.3,-5.78 7.49,-7.61 3.19,-1.84 6.77,-2.76 10.75,-2.76 3,0 5.64,0.62 7.92,1.87 2.28,1.25 4.04,2.99 5.29,5.24 1.25,2.24 1.87,4.8 1.87,7.66 0,4.12 -0.89,7.79 -2.68,11.03 -1.79,3.24 -4.28,5.78 -7.49,7.61 -3.2,1.84 -6.81,2.76 -10.83,2.76 -2.97,0 -5.59,-0.63 -7.87,-1.9 z m 15.58,-6.56 c 1.94,-1.28 3.44,-3.01 4.5,-5.19 1.06,-2.18 1.59,-4.54 1.59,-7.11 0,-2.77 -0.78,-4.94 -2.33,-6.53 -1.55,-1.58 -3.73,-2.38 -6.53,-2.38 -2.5,0 -4.71,0.64 -6.65,1.92 -1.94,1.28 -3.44,3 -4.5,5.16 -1.06,2.16 -1.59,4.52 -1.59,7.08 0,2.77 0.77,4.95 2.3,6.55 1.53,1.6 3.7,2.4 6.5,2.4 2.53,0 4.76,-0.64 6.7,-1.92 z"
                 id="path12"
                 style="stroke:none;stroke-opacity:1" />
              <path
                 class="cls-1"
                 d="m 601.58,142.11 h 11.64 l -0.96,5.41 h -18.77 l 6.27,-35.31 h 7.08 z"
                 id="path13"
                 style="stroke:none;stroke-opacity:1" />
              <path
                 class="cls-1"
                 d="m 632.14,112.21 -6.22,35.31 h -7.13 l 6.27,-35.31 z"
                 id="path14"
                 style="stroke:none;stroke-opacity:1" />
              <path
                 class="cls-1"
                 d="m 663,112.21 -1.01,5.57 h -14.67 l -1.62,9.26 h 11.23 l -0.96,5.46 h -11.28 l -2.63,15.03 h -7.13 l 6.27,-35.31 h 21.81 z"
                 id="path15"
                 style="stroke:none;stroke-opacity:1" />
              <path
                 class="cls-1"
                 d="m 676.2,117.72 -1.62,9.16 h 11.89 l -0.96,5.46 h -11.89 l -1.67,9.56 h 13.41 l -1.01,5.62 h -20.54 l 6.27,-35.36 h 20.49 l -0.96,5.57 H 676.2 Z"
                 id="path16"
                 style="stroke:none;stroke-opacity:1" />
              <path
                 class="cls-1"
                 d="m 720.52,114.66 c 1.85,1.64 2.78,3.77 2.78,6.4 0,0.64 -0.05,1.3 -0.15,1.97 -0.4,2.29 -1.44,4.38 -3.11,6.25 -1.67,1.87 -3.9,3.18 -6.7,3.92 l 5.92,14.32 h -8.25 l -5.26,-13.76 h -3.39 l -2.43,13.76 h -7.13 l 6.27,-35.31 h 13.26 c 3.61,0 6.34,0.82 8.2,2.45 z m -4.55,7.31 c 0,-1.28 -0.4,-2.28 -1.21,-2.98 -0.81,-0.71 -2.04,-1.06 -3.69,-1.06 h -5.92 l -1.87,10.57 h 5.92 c 1.89,0 3.4,-0.47 4.53,-1.42 1.13,-0.94 1.85,-2.24 2.15,-3.9 0.07,-0.61 0.1,-1.01 0.1,-1.21 z"
                 id="path17"
                 style="stroke:none;stroke-opacity:1" />
              <path
                 class="cls-1"
                 d="m 750.17,140.79 h -14.12 l -3.49,6.73 h -7.44 l 18.97,-35.36 h 8.25 l 6.43,35.36 h -7.49 z m -0.91,-5.51 -2.53,-14.98 -7.79,14.98 z"
                 id="path18"
                 style="stroke:none;stroke-opacity:1" />
              <path
                 class="cls-1"
                 d="m 795.9,112.21 -1.01,5.57 h -9.36 l -5.26,29.75 h -7.13 l 5.26,-29.75 h -9.41 l 1.01,-5.57 z"
                 id="path19"
                 style="stroke:none;stroke-opacity:1" />
              <path
                 class="cls-1"
                 d="M 810.22,112.21 804,147.52 h -7.13 l 6.27,-35.31 z"
                 id="path20"
                 style="stroke:none;stroke-opacity:1" />
              <path
                 class="cls-1"
                 d="m 821.68,145.98 c -2.28,-1.26 -4.04,-3.02 -5.29,-5.26 -1.25,-2.24 -1.87,-4.81 -1.87,-7.72 0,-4.05 0.9,-7.69 2.71,-10.93 1.8,-3.24 4.3,-5.78 7.49,-7.61 3.19,-1.84 6.77,-2.76 10.75,-2.76 3,0 5.64,0.62 7.92,1.87 2.28,1.25 4.04,2.99 5.29,5.24 1.25,2.24 1.87,4.8 1.87,7.66 0,4.12 -0.89,7.79 -2.68,11.03 -1.79,3.24 -4.28,5.78 -7.49,7.61 -3.2,1.84 -6.81,2.76 -10.83,2.76 -2.97,0 -5.59,-0.63 -7.87,-1.9 z m 15.58,-6.56 c 1.94,-1.28 3.44,-3.01 4.5,-5.19 1.06,-2.18 1.59,-4.54 1.59,-7.11 0,-2.77 -0.78,-4.94 -2.33,-6.53 -1.55,-1.58 -3.73,-2.38 -6.53,-2.38 -2.5,0 -4.71,0.64 -6.65,1.92 -1.94,1.28 -3.44,3 -4.5,5.16 -1.06,2.16 -1.59,4.52 -1.59,7.08 0,2.77 0.77,4.95 2.3,6.55 1.53,1.6 3.7,2.4 6.5,2.4 2.53,0 4.76,-0.64 6.7,-1.92 z"
                 id="path21"
                 style="stroke:none;stroke-opacity:1" />
              <path
                 class="cls-1"
                 d="m 885.05,147.52 h -7.13 l -11.69,-24.23 -4.3,24.23 h -7.13 l 6.27,-35.36 h 7.08 l 11.74,24.28 4.3,-24.28 h 7.08 z"
                 id="path22"
                 style="stroke:none;stroke-opacity:1" />
            </g>
          </g>
        </g>
        <g
           id="g41"
           style="stroke:none;stroke-opacity:1">
          <g
             id="g29"
             style="stroke:none;stroke-opacity:1">
            <path
               class="cls-1"
               d="M 413.56,173.23 V 194 h -28.2 v 85.65 H 359.44 V 194 h -28.2 v -20.77 h 82.31 z"
               id="path24"
               style="stroke:none;stroke-opacity:1" />
            <path
               class="cls-1"
               d="m 480.86,279.64 -22.13,-40.17 h -6.22 v 40.17 H 426.59 V 173.22 h 43.51 c 8.39,0 15.54,1.47 21.45,4.4 5.91,2.93 10.33,6.95 13.26,12.05 2.93,5.1 4.4,10.79 4.4,17.05 0,7.07 -2,13.39 -5.99,18.95 -3.99,5.56 -9.88,9.5 -17.66,11.82 l 24.56,42.14 h -29.26 z m -28.35,-58.51 h 16.07 c 4.75,0 8.31,-1.16 10.69,-3.49 2.37,-2.32 3.56,-5.61 3.56,-9.85 0,-4.24 -1.19,-7.22 -3.56,-9.55 -2.38,-2.32 -5.94,-3.49 -10.69,-3.49 h -16.07 z"
               id="path25"
               style="stroke:none;stroke-opacity:1" />
            <path
               class="cls-1"
               d="m 551.35,194 v 21.53 h 34.71 v 20.01 h -34.71 v 23.34 h 39.26 v 20.77 H 525.43 V 173.23 h 65.18 V 194 Z"
               id="path26"
               style="stroke:none;stroke-opacity:1" />
            <path
               class="cls-1"
               d="m 673.68,260.85 h -39.72 l -6.37,18.8 h -27.13 l 38.5,-106.42 h 30.01 l 38.5,106.42 h -27.44 l -6.37,-18.8 z m -6.67,-20.01 -13.19,-38.96 -13.04,38.96 z"
               id="path27"
               style="stroke:none;stroke-opacity:1" />
            <path
               class="cls-1"
               d="M 790.41,173.23 V 194 h -28.2 v 85.65 H 736.29 V 194 h -28.2 v -20.77 h 82.31 z"
               id="path28"
               style="stroke:none;stroke-opacity:1" />
            <path
               class="cls-1"
               d="m 900,173.23 -36.84,71.25 v 35.17 H 837.24 V 244.48 L 800.4,173.23 h 29.41 l 20.62,44.57 20.46,-44.57 h 29.1 z"
               id="path29"
               style="stroke:none;stroke-opacity:1" />
          </g>
          <g
             id="g40"
             style="stroke:none;stroke-opacity:1">
            <g
               id="g33"
               style="stroke:none;stroke-opacity:1">
              <path
                 class="cls-1"
                 d="m 718.52,15.2 v 13.13 h -28.39 v 14.19 h 21.24 V 55.27 H 690.13 V 82.49 H 673.16 V 15.2 Z"
                 id="path30"
                 style="stroke:none;stroke-opacity:1" />
              <path
                 class="cls-1"
                 d="m 744.3,15.2 v 40.26 c 0,4.03 1.02,7.13 3.08,9.3 2.05,2.17 5.06,3.26 9.03,3.26 3.97,0 7.01,-1.09 9.13,-3.26 2.12,-2.17 3.18,-5.27 3.18,-9.3 V 15.2 h 16.97 v 40.16 c 0,6.01 -1.32,11.09 -3.97,15.24 -2.65,4.15 -6.2,7.28 -10.67,9.39 -4.47,2.11 -9.45,3.16 -14.94,3.16 -5.49,0 -10.41,-1.04 -14.74,-3.12 -4.33,-2.08 -7.76,-5.21 -10.27,-9.39 -2.52,-4.19 -3.77,-9.28 -3.77,-15.29 V 15.2 Z"
                 id="path31"
                 style="stroke:none;stroke-opacity:1" />
              <path
                 class="cls-1"
                 d="m 813.87,28.33 v 13.61 h 25.36 V 54.59 H 813.87 V 69.35 H 842.2 V 82.48 H 796.89 V 15.2 h 45.31 v 13.13 z"
                 id="path32"
                 style="stroke:none;stroke-opacity:1" />
              <path
                 class="cls-1"
                 d="M 870.94,69.83 H 900 V 82.48 H 853.96 V 15.2 h 16.97 v 54.64 z"
                 id="path33"
                 style="stroke:none;stroke-opacity:1" />
            </g>
            <g
               id="g39"
               style="stroke:none;stroke-opacity:1">
              <path
                 class="cls-1"
                 d="m 375.05,15.2 v 13.13 h -27.41 v 14.19 h 20.51 V 55.27 H 347.64 V 82.49 H 331.25 V 15.2 Z"
                 id="path34"
                 style="stroke:none;stroke-opacity:1" />
              <path
                 class="cls-1"
                 d="m 470.13,80.76 c -3.9,-1.6 -7.01,-3.96 -9.35,-7.09 -2.33,-3.13 -3.56,-6.9 -3.69,-11.31 h 17.44 c 0.25,2.49 1.12,4.39 2.59,5.7 1.47,1.31 3.39,1.96 5.75,1.96 2.36,0 4.34,-0.56 5.75,-1.68 1.41,-1.12 2.11,-2.67 2.11,-4.65 0,-1.66 -0.56,-3.03 -1.68,-4.12 -1.12,-1.09 -2.49,-1.98 -4.12,-2.68 -1.63,-0.7 -3.95,-1.5 -6.95,-2.4 -4.35,-1.34 -7.89,-2.68 -10.64,-4.03 -2.75,-1.34 -5.11,-3.32 -7.09,-5.94 -1.98,-2.62 -2.97,-6.04 -2.97,-10.26 0,-6.26 2.27,-11.17 6.81,-14.71 4.54,-3.55 10.45,-5.32 17.73,-5.32 7.28,0 13.39,1.77 17.92,5.32 4.54,3.55 6.96,8.48 7.28,14.81 h -17.73 c -0.13,-2.17 -0.93,-3.88 -2.4,-5.13 -1.47,-1.25 -3.35,-1.87 -5.66,-1.87 -1.98,0 -3.58,0.53 -4.79,1.58 -1.21,1.05 -1.82,2.57 -1.82,4.55 0,2.17 1.02,3.87 3.07,5.08 2.04,1.21 5.24,2.52 9.59,3.93 4.34,1.47 7.87,2.88 10.59,4.22 2.71,1.34 5.06,3.29 7.05,5.85 1.98,2.56 2.97,5.85 2.97,9.87 0,4.02 -0.97,7.32 -2.92,10.45 -1.95,3.13 -4.78,5.62 -8.48,7.48 -3.71,1.85 -8.08,2.78 -13.13,2.78 -5.05,0 -9.33,-0.8 -13.23,-2.4 z"
                 id="path35"
                 style="stroke:none;stroke-opacity:1" />
              <path
                 class="cls-1"
                 d="m 529.08,80.76 c -3.9,-1.6 -7.01,-3.96 -9.35,-7.09 -2.33,-3.13 -3.56,-6.9 -3.69,-11.31 h 17.44 c 0.25,2.49 1.12,4.39 2.59,5.7 1.47,1.31 3.39,1.96 5.75,1.96 2.36,0 4.34,-0.56 5.75,-1.68 1.41,-1.12 2.11,-2.67 2.11,-4.65 0,-1.66 -0.56,-3.03 -1.68,-4.12 -1.12,-1.09 -2.49,-1.98 -4.12,-2.68 -1.63,-0.7 -3.95,-1.5 -6.95,-2.4 -4.35,-1.34 -7.89,-2.68 -10.64,-4.03 -2.75,-1.34 -5.11,-3.32 -7.09,-5.94 -1.98,-2.62 -2.97,-6.04 -2.97,-10.26 0,-6.26 2.27,-11.17 6.81,-14.71 4.54,-3.55 10.45,-5.32 17.73,-5.32 7.28,0 13.39,1.77 17.92,5.32 4.54,3.55 6.96,8.48 7.28,14.81 h -17.73 c -0.13,-2.17 -0.93,-3.88 -2.4,-5.13 -1.47,-1.25 -3.35,-1.87 -5.66,-1.87 -1.98,0 -3.58,0.53 -4.79,1.58 -1.21,1.05 -1.82,2.57 -1.82,4.55 0,2.17 1.02,3.87 3.07,5.08 2.04,1.21 5.24,2.52 9.59,3.93 4.34,1.47 7.87,2.88 10.59,4.22 2.71,1.34 5.06,3.29 7.05,5.85 1.98,2.56 2.97,5.85 2.97,9.87 0,4.02 -0.97,7.32 -2.92,10.45 -1.95,3.13 -4.78,5.62 -8.48,7.48 -3.71,1.85 -8.08,2.78 -13.13,2.78 -5.05,0 -9.33,-0.8 -13.23,-2.4 z"
                 id="path36"
                 style="stroke:none;stroke-opacity:1" />
              <path
                 class="cls-1"
                 d="M 593.3,15.2 V 82.49 H 576.91 V 15.2 Z"
                 id="path37"
                 style="stroke:none;stroke-opacity:1" />
              <path
                 class="cls-1"
                 d="m 621.58,69.83 h 21.47 V 82.48 H 605.19 V 15.2 h 16.39 v 54.64 z"
                 id="path38"
                 style="stroke:none;stroke-opacity:1" />
              <path
                 class="cls-1"
                 d="m 445.36,30.92 c -3.04,-5.24 -7.19,-9.33 -12.46,-12.27 -5.27,-2.94 -11.07,-4.41 -17.4,-4.41 -6.33,0 -12.13,1.47 -17.4,4.41 -5.27,2.94 -9.46,7.03 -12.56,12.27 -3.1,5.24 -4.65,11.15 -4.65,17.73 0,6.58 1.55,12.51 4.65,17.78 3.1,5.27 7.28,9.38 12.56,12.32 5.27,2.94 11.07,4.41 17.4,4.41 6.33,0 12.11,-1.47 17.35,-4.41 5.24,-2.94 9.39,-7.05 12.46,-12.32 3.07,-5.27 4.6,-11.2 4.6,-17.78 0,-6.58 -1.52,-12.49 -4.55,-17.73 z m -16.97,3.49 c 3.23,3.55 4.84,8.29 4.84,14.23 0,3.2 -0.5,6.05 -1.45,8.57 L 406.06,31.49 c 2.65,-1.58 5.79,-2.4 9.44,-2.4 5.37,0 9.66,1.77 12.89,5.32 z m -25.88,28.47 c -3.23,-3.55 -4.84,-8.29 -4.84,-14.23 0,-3.17 0.46,-5.98 1.36,-8.46 l 25.67,25.67 c -2.61,1.55 -5.67,2.35 -9.2,2.35 -5.43,0 -9.76,-1.77 -12.99,-5.32 z"
                 id="path39"
                 style="stroke:none;stroke-opacity:1" />
            </g>
          </g>
        </g>
      </g>
    </g>
  </g>
  <g
     inkscape:groupmode="layer"
     id="layer1"
     inkscape:label="bg"
     style="fill:#7b00a6;fill-opacity:1" />
</svg>
